<svg width="316" height="313" viewBox="0 0 316 313" fill="none" xmlns="http://www.w3.org/2000/svg">
<path d="M316 81.7734V95.1173L225.74 98.8213V313H212.344V232.752H75.3687V313H61.9695V232.752H0V219.421H212.344V99.3609L0 108.081V94.7373L242.601 84.7845V2.84698H255.987V84.2353L316 81.7734ZM28.2292 37.792L9.92191 1.15146L9.86738 1.03651H0.667235V64.17H12.8988V27.4145L31.2093 64.055L31.267 64.17H40.4672V1.03651H28.2292V37.792ZM52.8399 64.17H88.7038V52.9719H65.0779V38.2007H83.7829V27.0058H65.0779V12.2346H88.707V1.03651H52.8431L52.8399 64.17ZM103.053 64.17H115.284V1.03651H103.056L103.053 64.17ZM147.562 0.0562322C144.873 -0.142979 142.172 0.188306 139.613 1.03107C137.054 1.87383 134.687 3.21146 132.648 4.96718C130.916 6.83359 129.583 9.0301 128.727 11.424C127.872 13.8179 127.513 16.3596 127.673 18.8954V46.3335C127.516 48.8679 127.877 51.4075 128.734 53.7992C129.591 56.1909 130.926 58.3849 132.658 60.2489C134.696 62.002 137.061 63.3374 139.619 64.1785C142.176 65.0196 144.876 65.3499 147.562 65.1503C150.25 65.3497 152.951 65.0185 155.51 64.1757C158.07 63.3329 160.437 61.9952 162.475 60.2393C164.206 58.3742 165.539 56.1792 166.394 53.787C167.249 51.3948 167.609 48.8549 167.45 46.3207V31.4154H147.356V42.6135H155.228V47.3138C155.228 51.7841 152.723 53.9649 147.565 53.9649C142.407 53.9649 139.898 51.7904 139.898 47.3138V17.9055C139.898 13.4352 142.407 11.2543 147.565 11.2543C152.723 11.2543 155.228 13.4288 155.228 17.9055V20.7601H167.45V18.8954C167.607 16.3607 167.247 13.8208 166.39 11.4286C165.534 9.03646 164.2 6.84171 162.469 4.97676C160.431 3.22043 158.066 1.88169 155.508 1.03731C152.95 0.19293 150.249 -0.140469 147.562 0.0562322ZM205.441 1.03651V26.5172H190.111V1.03651H177.876V64.17H190.111V37.7122H205.441V64.17H217.676V1.03651H205.441ZM86.1086 134.507C87.8425 136.37 89.1791 138.564 90.0375 140.956C90.896 143.347 91.2585 145.887 91.1033 148.423V175.861C91.2603 178.395 90.8998 180.935 90.0436 183.327C89.1874 185.72 87.8531 187.914 86.1215 189.779C84.083 191.535 81.7161 192.873 79.1569 193.715C76.5976 194.558 73.8963 194.889 71.2081 194.69C68.5198 194.89 65.8184 194.559 63.2591 193.716C60.6997 192.873 58.333 191.535 56.2948 189.779C54.5622 187.915 53.2272 185.72 52.3704 183.328C51.5136 180.936 51.1528 178.395 51.3097 175.861V148.423C51.1527 145.888 51.5134 143.348 52.3702 140.956C53.227 138.565 54.5621 136.371 56.2948 134.507C58.3332 132.751 60.7 131.413 63.2592 130.571C65.8185 129.728 68.5199 129.397 71.2081 129.596C73.8963 129.397 76.5975 129.729 79.1567 130.571C81.7159 131.414 84.0828 132.752 86.1215 134.507M78.8717 147.442C78.8717 142.972 76.3631 140.794 71.2049 140.794C66.0467 140.794 63.5349 142.969 63.5349 147.442V176.844C63.5349 181.314 66.0434 183.495 71.2049 183.495C76.3663 183.495 78.8717 181.318 78.8717 176.844V147.442ZM40.881 174.884C41.0379 177.418 40.6774 179.957 39.8212 182.349C38.965 184.741 37.6308 186.935 35.8992 188.799C33.8608 190.555 31.494 191.893 28.9347 192.735C26.3754 193.578 23.6741 193.909 20.9858 193.71H1.08105V130.576H19.507C22.1952 130.377 24.8966 130.708 27.4559 131.551C30.0151 132.394 32.3819 133.731 34.4203 135.487C36.153 137.351 37.4881 139.545 38.3449 141.937C39.2017 144.329 39.5625 146.868 39.4054 149.403C39.5458 151.625 39.2189 153.852 38.4456 155.941C37.6723 158.03 36.4696 159.936 34.9144 161.536C36.9446 163.094 38.5542 165.13 39.5985 167.46C40.6427 169.79 41.089 172.342 40.897 174.887M13.3319 157.037H19.523C24.6813 157.037 27.1866 154.863 27.1866 150.386V148.426C27.1866 143.955 24.6813 141.775 19.523 141.775H13.3158L13.3319 157.037ZM28.6462 173.903C28.6462 169.433 26.1409 167.252 20.9826 167.252H13.3158V182.515H20.9826C26.1409 182.515 28.6462 180.34 28.6462 175.861V173.903ZM180.542 166.071L189.54 188.601V193.71H178.357L168.612 168.232H161.978V193.71H149.743V130.576H169.632C172.32 130.378 175.021 130.709 177.58 131.552C180.14 132.394 182.506 133.732 184.545 135.487C186.277 137.352 187.611 139.546 188.467 141.937C189.323 144.329 189.684 146.869 189.527 149.403C189.527 157.603 186.499 163.206 180.529 166.071M177.298 148.426C177.298 143.955 174.79 141.775 169.632 141.775H161.965V157.037H169.632C174.79 157.037 177.298 154.863 177.298 150.386V148.426ZM127.089 176.844C127.089 181.314 124.58 183.495 119.422 183.495C114.264 183.495 111.755 181.318 111.755 176.844V130.576H99.5335V175.861C99.3766 178.395 99.7374 180.936 100.594 183.328C101.451 185.72 102.786 187.915 104.519 189.779C106.557 191.535 108.924 192.873 111.483 193.716C114.042 194.559 116.744 194.89 119.432 194.69C122.12 194.89 124.821 194.558 127.381 193.716C129.94 192.873 132.307 191.535 134.345 189.779C136.077 187.914 137.411 185.72 138.267 183.327C139.124 180.935 139.484 178.395 139.327 175.861V130.576H127.099L127.089 176.844ZM310.938 257.9C309.066 259.625 306.861 260.954 304.459 261.806C302.056 262.659 299.504 263.018 296.958 262.862H269.393C266.847 263.018 264.295 262.659 261.893 261.806C259.49 260.953 257.286 259.625 255.413 257.9C253.648 255.87 252.304 253.513 251.458 250.965C250.611 248.416 250.278 245.726 250.479 243.049C250.279 240.373 250.612 237.685 251.459 235.137C252.305 232.59 253.649 230.234 255.413 228.205C257.286 226.482 259.491 225.155 261.894 224.304C264.296 223.452 266.847 223.095 269.393 223.252H296.961C299.507 223.096 302.059 223.455 304.462 224.308C306.865 225.161 309.069 226.49 310.941 228.214C312.703 230.242 314.046 232.597 314.892 235.143C315.738 237.688 316.071 240.375 315.872 243.049C316.072 245.725 315.739 248.414 314.892 250.961C314.046 253.509 312.702 255.865 310.938 257.894M297.943 250.678C302.434 250.678 304.625 248.184 304.625 243.046C304.625 237.908 302.44 235.418 297.943 235.418H268.408C263.917 235.418 261.723 237.912 261.723 243.046C261.723 248.181 263.908 250.678 268.408 250.678H297.943ZM289.282 150.734V135.471H314.88V123.293H251.464V135.471H278.045V150.734H251.464V162.903H314.89V150.731L289.282 150.734ZM310.938 207.925C309.066 209.65 306.861 210.979 304.459 211.832C302.056 212.684 299.504 213.044 296.958 212.887H269.393C266.847 213.043 264.295 212.684 261.893 211.831C259.49 210.979 257.286 209.65 255.413 207.925C253.649 205.896 252.305 203.541 251.459 200.993C250.612 198.446 250.279 195.757 250.479 193.081C250.278 190.404 250.611 187.714 251.457 185.165C252.304 182.617 253.648 180.26 255.413 178.23C257.286 176.505 259.49 175.177 261.892 174.324C264.295 173.471 266.847 173.112 269.393 173.268H296.961C299.507 173.112 302.058 173.471 304.46 174.324C306.862 175.177 309.066 176.506 310.938 178.23C312.702 180.259 314.046 182.615 314.893 185.162C315.739 187.71 316.072 190.399 315.872 193.074C316.073 195.751 315.741 198.441 314.894 200.99C314.047 203.539 312.703 205.896 310.938 207.925ZM297.943 200.709C302.434 200.709 304.625 198.212 304.625 193.081C304.625 187.95 302.44 185.449 297.943 185.449H268.408C263.917 185.449 261.723 187.943 261.723 193.081C261.723 198.219 263.908 200.709 268.408 200.709H297.943ZM295.973 312.84H270.375C267.828 312.994 265.277 312.633 262.875 311.779C260.473 310.924 258.27 309.594 256.398 307.869C254.634 305.84 253.29 303.484 252.444 300.936C251.597 298.389 251.264 295.7 251.464 293.024V273.227H314.89V293.024C315.09 295.7 314.757 298.389 313.91 300.937C313.062 303.484 311.718 305.84 309.953 307.869C308.08 309.592 305.876 310.92 303.473 311.773C301.07 312.625 298.519 312.984 295.973 312.828M296.958 300.652C301.449 300.652 303.64 298.155 303.64 293.021V285.389H262.724V293.021C262.724 298.155 264.908 300.652 269.406 300.652H296.958Z" fill="currentColor"/>
</svg>
